# xmcd
#
# Track frame offsets: 
#        150
#        5787
#        29727
#        47513
#        71630
#        89066
#        109795
#        129608
#        151771
#        172265
#        193068
#        193674
#        213791
#        235073
#        255761
#        278761
#        303891
#
# Disc length: 4393 seconds
#
# Revision: 1
# Processed by: cddbd v1.5.2PL0 Copyright (c) Steve Scherf et al.
# Submitted via: ExactAudioCopyFreeDBPlugin 1.0
#
DISCID=ec112711
DTITLE=911 - The Pressure
DYEAR=1994
DGENRE=R&B
TTITLE0=Radio (Interlude)
TTITLE1=Cutie
TTITLE2=Higher
TTITLE3=Spend Some Time
TTITLE4=Recognize
TTITLE5=My Heart Belongs To You
TTITLE6=Catchin Feelins
TTITLE7=The Ride
TTITLE8=Do You Right
TTITLE9=Misery
TTITLE10=Space (Interlude)
TTITLE11=Something About The Way
TTITLE12=Make Me Say
TTITLE13=The Pressure
TTITLE14=Rescue Me
TTITLE15=End Of The Earth
TTITLE16=Can't Get Enough (Feat. Chance)
EXTD=
EXTT0=
EXTT1=
EXTT2=
EXTT3=
EXTT4=
EXTT5=
EXTT6=
EXTT7=
EXTT8=
EXTT9=
EXTT10=
EXTT11=
EXTT12=
EXTT13=
EXTT14=
EXTT15=
EXTT16=
PLAYORDER=
